# xmcd
#
# Track frame offsets:
#	150
#	12448
#	24729
#	34443
#	50000
#	66120
#	85960
#	102388
#	118041
#	130960
#	147191
#	157565
#	174699
#	194207
#	204743
#	215363
#	224553
#
# Disc length: 3132 seconds
#
# Revision: 1
# Processed by: cddbd v1.4PL0 Copyright (c) Steve Scherf et al.
# Submitted via: EasyCDDAExtractor 5.0.7
#
DISCID=0a0c3a11
DTITLE=Marty and his Rockin' Comets - Straighten Up And Fly Right
DYEAR=2001
DGENRE=R&B
TTITLE0=Sheik Of Arabie
TTITLE1=Banana Split For Baby
TTITLE2=She's The Most
TTITLE3=Let The Good Old Times Roll
TTITLE4=Tu Vuo' Fa' L'Americano
TTITLE5=Fine Brown Frame
TTITLE6=Cheek To Cheek
TTITLE7=Starighten Up And Fly Right
TTITLE8=Perfidia
TTITLE9=Waterloo
TTITLE10=You Can't Stop Me From Dreamin'
TTITLE11=Rocketship To The Moon
TTITLE12=Yeah Yeah
TTITLE13=Hey Then There Now
TTITLE14=Boogie Woogie On A Saturday Night
TTITLE15=Sweet Sue Just You
TTITLE16=Five Finger Boogie
EXTD=
EXTT0=
EXTT1=
EXTT2=
EXTT3=
EXTT4=
EXTT5=
EXTT6=
EXTT7=
EXTT8=
EXTT9=
EXTT10=
EXTT11=
EXTT12=
EXTT13=
EXTT14=
EXTT15=
EXTT16=
PLAYORDER=
